<mxfile host="app.diagrams.net" modified="2023-04-26T05:35:18.855Z" agent="Mozilla/5.0 (Windows NT 10.0; Win64; x64) AppleWebKit/537.36 (KHTML, like Gecko) Chrome/112.0.0.0 Safari/537.36" etag="uHOFm0qdtgYWFjnHzezR" version="21.2.2" type="github">
  <diagram name="Page-1" id="QXMAF42PAdfrTfr6LR4D">
    <mxGraphModel dx="2284" dy="760" grid="1" gridSize="10" guides="1" tooltips="1" connect="1" arrows="1" fold="1" page="1" pageScale="1" pageWidth="850" pageHeight="1100" math="0" shadow="0">
      <root>
        <mxCell id="0" />
        <mxCell id="1" parent="0" />
        <mxCell id="8ePyt9uVUtkO4qc_ZTVV-26" value="persist" style="edgeStyle=orthogonalEdgeStyle;rounded=0;orthogonalLoop=1;jettySize=auto;html=1;exitX=0.5;exitY=1;exitDx=0;exitDy=0;entryX=0.5;entryY=0;entryDx=0;entryDy=0;" edge="1" parent="1" source="8ePyt9uVUtkO4qc_ZTVV-1" target="8ePyt9uVUtkO4qc_ZTVV-5">
          <mxGeometry relative="1" as="geometry" />
        </mxCell>
        <mxCell id="8ePyt9uVUtkO4qc_ZTVV-1" value="" style="rounded=1;whiteSpace=wrap;html=1;" vertex="1" parent="1">
          <mxGeometry x="-780" y="80" width="120" height="220" as="geometry" />
        </mxCell>
        <mxCell id="8ePyt9uVUtkO4qc_ZTVV-3" value="" style="rounded=1;whiteSpace=wrap;html=1;" vertex="1" parent="1">
          <mxGeometry x="-610" y="80" width="120" height="220" as="geometry" />
        </mxCell>
        <mxCell id="8ePyt9uVUtkO4qc_ZTVV-4" value="" style="rounded=1;whiteSpace=wrap;html=1;" vertex="1" parent="1">
          <mxGeometry x="-425" y="80" width="120" height="220" as="geometry" />
        </mxCell>
        <mxCell id="8ePyt9uVUtkO4qc_ZTVV-27" value="replay" style="edgeStyle=orthogonalEdgeStyle;rounded=0;orthogonalLoop=1;jettySize=auto;html=1;exitX=0.5;exitY=1;exitDx=0;exitDy=0;entryX=0.5;entryY=0;entryDx=0;entryDy=0;" edge="1" parent="1" source="8ePyt9uVUtkO4qc_ZTVV-5" target="8ePyt9uVUtkO4qc_ZTVV-8">
          <mxGeometry relative="1" as="geometry" />
        </mxCell>
        <mxCell id="8ePyt9uVUtkO4qc_ZTVV-5" value="" style="rounded=1;whiteSpace=wrap;html=1;" vertex="1" parent="1">
          <mxGeometry x="-780" y="330" width="120" height="140" as="geometry" />
        </mxCell>
        <mxCell id="8ePyt9uVUtkO4qc_ZTVV-25" style="edgeStyle=orthogonalEdgeStyle;rounded=0;orthogonalLoop=1;jettySize=auto;html=1;exitX=0;exitY=0.5;exitDx=0;exitDy=0;entryX=1;entryY=0.5;entryDx=0;entryDy=0;" edge="1" parent="1" source="8ePyt9uVUtkO4qc_ZTVV-6" target="8ePyt9uVUtkO4qc_ZTVV-1">
          <mxGeometry relative="1" as="geometry" />
        </mxCell>
        <mxCell id="8ePyt9uVUtkO4qc_ZTVV-6" value="" style="rounded=1;whiteSpace=wrap;html=1;" vertex="1" parent="1">
          <mxGeometry x="-610" y="330" width="120" height="140" as="geometry" />
        </mxCell>
        <mxCell id="8ePyt9uVUtkO4qc_ZTVV-7" value="" style="rounded=1;whiteSpace=wrap;html=1;" vertex="1" parent="1">
          <mxGeometry x="-425" y="330" width="120" height="140" as="geometry" />
        </mxCell>
        <mxCell id="8ePyt9uVUtkO4qc_ZTVV-8" value="" style="rounded=1;whiteSpace=wrap;html=1;" vertex="1" parent="1">
          <mxGeometry x="-780" y="510" width="120" height="140" as="geometry" />
        </mxCell>
        <mxCell id="8ePyt9uVUtkO4qc_ZTVV-24" style="edgeStyle=orthogonalEdgeStyle;rounded=0;orthogonalLoop=1;jettySize=auto;html=1;exitX=0;exitY=0.5;exitDx=0;exitDy=0;entryX=1;entryY=0.75;entryDx=0;entryDy=0;" edge="1" parent="1" source="8ePyt9uVUtkO4qc_ZTVV-9" target="8ePyt9uVUtkO4qc_ZTVV-1">
          <mxGeometry relative="1" as="geometry" />
        </mxCell>
        <mxCell id="8ePyt9uVUtkO4qc_ZTVV-9" value="" style="rounded=1;whiteSpace=wrap;html=1;" vertex="1" parent="1">
          <mxGeometry x="-610" y="510" width="120" height="140" as="geometry" />
        </mxCell>
        <mxCell id="8ePyt9uVUtkO4qc_ZTVV-10" value="" style="rounded=1;whiteSpace=wrap;html=1;" vertex="1" parent="1">
          <mxGeometry x="-425" y="510" width="120" height="140" as="geometry" />
        </mxCell>
        <mxCell id="8ePyt9uVUtkO4qc_ZTVV-23" style="edgeStyle=orthogonalEdgeStyle;rounded=0;orthogonalLoop=1;jettySize=auto;html=1;exitX=0;exitY=0.5;exitDx=0;exitDy=0;entryX=1;entryY=0.25;entryDx=0;entryDy=0;" edge="1" parent="1" source="8ePyt9uVUtkO4qc_ZTVV-11" target="8ePyt9uVUtkO4qc_ZTVV-1">
          <mxGeometry relative="1" as="geometry" />
        </mxCell>
        <mxCell id="8ePyt9uVUtkO4qc_ZTVV-11" value="P1" style="whiteSpace=wrap;html=1;aspect=fixed;strokeColor=#FF0000;" vertex="1" parent="1">
          <mxGeometry x="-585" y="100" width="70" height="70" as="geometry" />
        </mxCell>
        <mxCell id="8ePyt9uVUtkO4qc_ZTVV-12" value="P2" style="whiteSpace=wrap;html=1;aspect=fixed;" vertex="1" parent="1">
          <mxGeometry x="-585" y="190" width="70" height="70" as="geometry" />
        </mxCell>
        <mxCell id="8ePyt9uVUtkO4qc_ZTVV-13" value="P3" style="whiteSpace=wrap;html=1;aspect=fixed;" vertex="1" parent="1">
          <mxGeometry x="-755" y="550" width="70" height="70" as="geometry" />
        </mxCell>
        <mxCell id="8ePyt9uVUtkO4qc_ZTVV-14" value="P4" style="whiteSpace=wrap;html=1;aspect=fixed;strokeColor=#FF0000;" vertex="1" parent="1">
          <mxGeometry x="-585" y="545" width="70" height="70" as="geometry" />
        </mxCell>
        <mxCell id="8ePyt9uVUtkO4qc_ZTVV-15" value="P5" style="whiteSpace=wrap;html=1;aspect=fixed;" vertex="1" parent="1">
          <mxGeometry x="-400" y="545" width="70" height="70" as="geometry" />
        </mxCell>
        <mxCell id="8ePyt9uVUtkO4qc_ZTVV-16" value="Record 1" style="rounded=0;whiteSpace=wrap;html=1;" vertex="1" parent="1">
          <mxGeometry x="-575" y="350" width="50" height="30" as="geometry" />
        </mxCell>
        <mxCell id="8ePyt9uVUtkO4qc_ZTVV-17" value="Record 2" style="rounded=0;whiteSpace=wrap;html=1;strokeColor=#FF0000;" vertex="1" parent="1">
          <mxGeometry x="-575" y="380" width="50" height="30" as="geometry" />
        </mxCell>
        <mxCell id="8ePyt9uVUtkO4qc_ZTVV-19" value="Record 3" style="rounded=0;whiteSpace=wrap;html=1;" vertex="1" parent="1">
          <mxGeometry x="-575" y="410" width="50" height="30" as="geometry" />
        </mxCell>
        <mxCell id="8ePyt9uVUtkO4qc_ZTVV-20" value="P1" style="whiteSpace=wrap;html=1;aspect=fixed;strokeColor=#FF0000;dashed=1;" vertex="1" parent="1">
          <mxGeometry x="-755" y="100" width="70" height="70" as="geometry" />
        </mxCell>
        <mxCell id="8ePyt9uVUtkO4qc_ZTVV-21" value="P4" style="whiteSpace=wrap;html=1;aspect=fixed;strokeColor=#FF0000;dashed=1;" vertex="1" parent="1">
          <mxGeometry x="-755" y="180" width="70" height="70" as="geometry" />
        </mxCell>
        <mxCell id="8ePyt9uVUtkO4qc_ZTVV-22" value="Record 2" style="rounded=0;whiteSpace=wrap;html=1;strokeColor=#FF0000;dashed=1;" vertex="1" parent="1">
          <mxGeometry x="-745" y="260" width="50" height="30" as="geometry" />
        </mxCell>
        <mxCell id="8ePyt9uVUtkO4qc_ZTVV-28" value="Data log" style="rounded=0;whiteSpace=wrap;html=1;" vertex="1" parent="1">
          <mxGeometry x="-760" y="345" width="80" height="40" as="geometry" />
        </mxCell>
        <mxCell id="8ePyt9uVUtkO4qc_ZTVV-29" value="index" style="rounded=0;whiteSpace=wrap;html=1;" vertex="1" parent="1">
          <mxGeometry x="-760" y="400" width="80" height="40" as="geometry" />
        </mxCell>
      </root>
    </mxGraphModel>
  </diagram>
</mxfile>
